# xmcd
#
# Track frame offsets: 
#        150
#        15432
#        25145
#        36104
#        46093
#        59057
#        68900
#        84984
#        95297
#        105321
#        117891
#        130222
#        146268
#        156299
#        169662
#        182089
#        192652
#        205863
#        221501
#        237356
#        252749
#        264551
#
# Disc length: 3658 seconds
#
# Revision: 0
# Processed by: cddbd v1.5.2PL0 Copyright (c) Steve Scherf et al.
# Submitted via: ExactAudioCopyFreeDBPlugin 1.0
#
DISCID=330e4816
DTITLE=Walter Ostanek vs. Brian Sklar and The Western Senators - Dueling
DTITLE=Polkas
DYEAR=2007
DGENRE=Country
TTITLE0=A Cleveland Polka
TTITLE1=Under The Double Eagle Polka
TTITLE2=Waltz Across Texas
TTITLE3=Iron Mike's Polka
TTITLE4=Marylou Polka
TTITLE5=Perko's Polka
TTITLE6=You Are My One True LOVE Waltz
TTITLE7=Grenade Polka
TTITLE8=Who Stole The Keeshka Polka
TTITLE9=Sydney's Waltz
TTITLE10=Browns Polka
TTITLE11=Oktoberfest Polka
TTITLE12=Steeple Jack Polka
TTITLE13=Danceland Schottische
TTITLE14=Somebody Else Is Taking My Place Polka
TTITLE15=Chardon Polka
TTITLE16=Polkarama Polka
TTITLE17=Red Lips Waltz
TTITLE18=Trudy Bear Polka
TTITLE19=So Long Darling Polka
TTITLE20=Flying Fingers Polka
TTITLE21=Red Barn Polka
EXTD=
EXTT0=
EXTT1=
EXTT2=
EXTT3=
EXTT4=
EXTT5=
EXTT6=
EXTT7=
EXTT8=
EXTT9=
EXTT10=
EXTT11=
EXTT12=
EXTT13=
EXTT14=
EXTT15=
EXTT16=
EXTT17=
EXTT18=
EXTT19=
EXTT20=
EXTT21=
PLAYORDER=
